# xmcd
#
# Track frame offsets:
# 150
# 3912
# 21627
# 33982
# 49807
# 64815
# 78789
# 91698
# 105717
# 116473
# 132456
# 151046
# 168461
# 178679
# 198234
# 209482
# 227631
#
# Disc length: 3087 seconds
#
#
# Revision: 0
# Processed by: cddbd v1.5.1PL0 Copyright (c) Steve Scherf et al.
# Submitted via: FreeRIP 2.90 
#
DISCID=d70c0d11
DTITLE=Sean McMahon and Tomek Kamiñski - Where Will You Go?
DYEAR=1900
DGENRE=Blues
TTITLE0=Intro
TTITLE1=Me and My Baby
TTITLE2=Never Drive A Stranger From Your Door
TTITLE3=Bad Storm Blues
TTITLE4=My Girl
TTITLE5=Road To Cordoba
TTITLE6=Honey Bea
TTITLE7=Sugar Mama
TTITLE8=Hush
TTITLE9=Grinnin'in Your Face
TTITLE10=Jam with Myself
TTITLE11=Spanish Johnny
TTITLE12=If I Had Possesion (Over Judgment Day)
TTITLE13=He Was
TTITLE14=Bad Times Here
TTITLE15=Will the Circle Be Unbroken?
TTITLE16=Outro (And We Bid You Goodnight)
EXTD=
EXTT0=
EXTT1=
EXTT2=
EXTT3=
EXTT4=
EXTT5=
EXTT6=
EXTT7=
EXTT8=
EXTT9=
EXTT10=
EXTT11=
EXTT12=
EXTT13=
EXTT14=
EXTT15=
EXTT16=
PLAYORDER=
